<svg width="24" height="24" viewBox="0 0 24 24" fill="none" xmlns="http://www.w3.org/2000/svg">
<path fill-rule="evenodd" clip-rule="evenodd" d="M10.5303 5.46983C10.6708 5.61045 10.7497 5.80108 10.7497 5.99983C10.7497 6.19858 10.6708 6.3892 10.5303 6.52983L5.81032 11.2498H20.0003C20.1992 11.2498 20.39 11.3288 20.5306 11.4695C20.6713 11.6102 20.7503 11.8009 20.7503 11.9998C20.7503 12.1987 20.6713 12.3895 20.5306 12.5302C20.39 12.6708 20.1992 12.7498 20.0003 12.7498H5.81032L10.5303 17.4698C10.604 17.5385 10.6631 17.6213 10.7041 17.7133C10.7451 17.8053 10.7671 17.9046 10.7689 18.0053C10.7707 18.106 10.7522 18.206 10.7144 18.2994C10.6767 18.3928 10.6206 18.4776 10.5494 18.5489C10.4781 18.6201 10.3933 18.6762 10.2999 18.714C10.2065 18.7517 10.1065 18.7702 10.0058 18.7684C9.90509 18.7666 9.80578 18.7446 9.71378 18.7036C9.62178 18.6626 9.53898 18.6035 9.47032 18.5298L3.47032 12.5298C3.32987 12.3892 3.25098 12.1986 3.25098 11.9998C3.25098 11.8011 3.32987 11.6105 3.47032 11.4698L9.47032 5.46983C9.61094 5.32938 9.80157 5.25049 10.0003 5.25049C10.1991 5.25049 10.3897 5.32938 10.5303 5.46983Z" fill="white"/>
</svg>
