<svg width="23" height="21" viewBox="0 0 23 21" fill="none" xmlns="http://www.w3.org/2000/svg">
<path d="M11.875 5.48047C11.875 4.4196 11.4536 3.40219 10.7034 2.65204C9.95328 1.9019 8.93587 1.48047 7.875 1.48047H1.875V16.4805H8.875C9.67065 16.4805 10.4337 16.7965 10.9963 17.3591C11.5589 17.9218 11.875 18.6848 11.875 19.4805M11.875 5.48047V19.4805M11.875 5.48047C11.875 4.4196 12.2964 3.40219 13.0466 2.65204C13.7967 1.9019 14.8141 1.48047 15.875 1.48047H21.875V16.4805H14.875C14.0794 16.4805 13.3163 16.7965 12.7537 17.3591C12.1911 17.9218 11.875 18.6848 11.875 19.4805" stroke="#6C74EB" stroke-width="2" stroke-linecap="round" stroke-linejoin="round"/>
</svg>
