<svg width="20" height="20" viewBox="0 0 20 20" fill="none" xmlns="http://www.w3.org/2000/svg">
<path d="M7.49935 18.3346C7.95959 18.3346 8.33268 17.9615 8.33268 17.5013C8.33268 17.0411 7.95959 16.668 7.49935 16.668C7.03911 16.668 6.66602 17.0411 6.66602 17.5013C6.66602 17.9615 7.03911 18.3346 7.49935 18.3346Z" stroke="black" stroke-width="1.66667" stroke-linecap="round" stroke-linejoin="round"/>
<path d="M16.6663 18.3346C17.1266 18.3346 17.4997 17.9615 17.4997 17.5013C17.4997 17.0411 17.1266 16.668 16.6663 16.668C16.2061 16.668 15.833 17.0411 15.833 17.5013C15.833 17.9615 16.2061 18.3346 16.6663 18.3346Z" stroke="black" stroke-width="1.66667" stroke-linecap="round" stroke-linejoin="round"/>
<path d="M0.833008 0.833984H4.16634L6.39967 11.9923C6.47588 12.376 6.6846 12.7206 6.9893 12.9659C7.29399 13.2112 7.67526 13.3415 8.06634 13.334H16.1663C16.5574 13.3415 16.9387 13.2112 17.2434 12.9659C17.5481 12.7206 17.7568 12.376 17.833 11.9923L19.1663 5.00065H4.99967" stroke="black" stroke-width="1.66667" stroke-linecap="round" stroke-linejoin="round"/>
</svg>
