<svg width="21" height="20" viewBox="0 0 21 20" fill="none" xmlns="http://www.w3.org/2000/svg">
<path d="M16.3333 2.5H4.66667C3.74619 2.5 3 3.24619 3 4.16667V15.8333C3 16.7538 3.74619 17.5 4.66667 17.5H16.3333C17.2538 17.5 18 16.7538 18 15.8333V4.16667C18 3.24619 17.2538 2.5 16.3333 2.5Z" stroke="#637FEA" stroke-width="1.66667" stroke-linecap="round" stroke-linejoin="round"/>
<path d="M7.58337 8.33398C8.27373 8.33398 8.83337 7.77434 8.83337 7.08398C8.83337 6.39363 8.27373 5.83398 7.58337 5.83398C6.89302 5.83398 6.33337 6.39363 6.33337 7.08398C6.33337 7.77434 6.89302 8.33398 7.58337 8.33398Z" stroke="#637FEA" stroke-width="1.66667" stroke-linecap="round" stroke-linejoin="round"/>
<path d="M18 12.5007L13.8333 8.33398L4.66663 17.5007" stroke="#637FEA" stroke-width="1.66667" stroke-linecap="round" stroke-linejoin="round"/>
</svg>
