<svg width="16" height="16" viewBox="0 0 16 16" fill="none" xmlns="http://www.w3.org/2000/svg">
<path d="M1.91992 3.8393H13.4399M12.1599 3.8393V12.7993C12.1599 13.1388 12.0251 13.4643 11.785 13.7044C11.545 13.9444 11.2194 14.0793 10.8799 14.0793H4.47992C4.14044 14.0793 3.81487 13.9444 3.57483 13.7044C3.33478 13.4643 3.19992 13.1388 3.19992 12.7993V3.8393M5.11992 3.8393V2.5593C5.11992 2.21982 5.25478 1.89425 5.49483 1.6542C5.73487 1.41415 6.06045 1.2793 6.39992 1.2793H8.95992C9.2994 1.2793 9.62497 1.41415 9.86502 1.6542C10.1051 1.89425 10.2399 2.21982 10.2399 2.5593V3.8393" stroke="#DB0808" stroke-width="1.28" stroke-linecap="round" stroke-linejoin="round"/>
</svg>
