<svg width="16" height="16" viewBox="0 0 16 16" fill="none" xmlns="http://www.w3.org/2000/svg">
<g clip-path="url(#clip0_20_1061)">
<path d="M14.6668 7.38527V7.99861C14.666 9.43622 14.2005 10.8351 13.3397 11.9865C12.4789 13.1379 11.269 13.9803 9.8904 14.3879C8.51178 14.7955 7.03834 14.7465 5.68981 14.2483C4.34128 13.7501 3.18993 12.8293 2.40747 11.6233C1.62501 10.4173 1.25336 8.99065 1.34795 7.55615C1.44254 6.12165 1.9983 4.75616 2.93235 3.66332C3.8664 2.57049 5.12869 1.80886 6.53096 1.49204C7.93322 1.17521 9.40034 1.32017 10.7135 1.90527" stroke="#A436F0" stroke-width="1.33333" stroke-linecap="round" stroke-linejoin="round"/>
<path d="M14.6667 2.66602L8 9.33935L6 7.33935" stroke="#A436F0" stroke-width="1.33333" stroke-linecap="round" stroke-linejoin="round"/>
</g>
<defs>
<clipPath id="clip0_20_1061">
<rect width="16" height="16" fill="white"/>
</clipPath>
</defs>
</svg>
