<svg width="18" height="18" viewBox="0 0 18 18" fill="none" xmlns="http://www.w3.org/2000/svg">
<path d="M13.167 0.666992H4.83366C2.53247 0.666992 0.666992 2.53247 0.666992 4.83366V13.167C0.666992 15.4682 2.53247 17.3337 4.83366 17.3337H13.167C15.4682 17.3337 17.3337 15.4682 17.3337 13.167V4.83366C17.3337 2.53247 15.4682 0.666992 13.167 0.666992Z" stroke="#6B7385" stroke-linecap="round" stroke-linejoin="round"/>
<path d="M13.5837 4.41699H13.5921M12.3337 8.47533C12.4366 9.16886 12.3181 9.87717 11.9952 10.4995C11.6723 11.1218 11.1614 11.6265 10.5351 11.9417C9.90883 12.2569 9.19911 12.3667 8.5069 12.2553C7.81468 12.1439 7.17521 11.8171 6.67944 11.3213C6.18367 10.8255 5.85685 10.1861 5.74546 9.49384C5.63408 8.80162 5.74379 8.0919 6.05901 7.46564C6.37423 6.83937 6.8789 6.32844 7.50123 6.00553C8.12356 5.68261 8.83187 5.56415 9.52541 5.66699C10.2328 5.7719 10.8878 6.10155 11.3935 6.60725C11.8992 7.11295 12.2288 7.76789 12.3337 8.47533Z" stroke="#6B7385" stroke-linecap="round" stroke-linejoin="round"/>
</svg>
