<svg width="14" height="16" viewBox="0 0 14 16" fill="none" xmlns="http://www.w3.org/2000/svg">
<path d="M1 4.00065L3 1.33398H11L13 4.00065M1 4.00065V13.334C1 13.6876 1.14048 14.0267 1.39052 14.2768C1.64057 14.5268 1.97971 14.6673 2.33333 14.6673H11.6667C12.0203 14.6673 12.3594 14.5268 12.6095 14.2768C12.8595 14.0267 13 13.6876 13 13.334V4.00065M1 4.00065H13" stroke="#6B7385" stroke-width="1.33333" stroke-linecap="round" stroke-linejoin="round"/>
<path d="M9.66634 6.66797C9.66634 7.37521 9.38539 8.05349 8.88529 8.55359C8.3852 9.05368 7.70692 9.33464 6.99967 9.33464C6.29243 9.33464 5.61415 9.05368 5.11406 8.55359C4.61396 8.05349 4.33301 7.37521 4.33301 6.66797" stroke="#6B7385" stroke-width="1.33333" stroke-linecap="round" stroke-linejoin="round"/>
</svg>
