<svg width="50" height="46" viewBox="0 0 50 46" fill="none" xmlns="http://www.w3.org/2000/svg">
<path d="M25.001 11.8477C25.001 9.46071 24.0528 7.17152 22.3649 5.4837C20.6771 3.79587 18.3879 2.84766 16.001 2.84766H2.50098V36.5977H18.251C20.0412 36.5977 21.7581 37.3088 23.024 38.5747C24.2898 39.8406 25.001 41.5574 25.001 43.3477M25.001 11.8477V43.3477M25.001 11.8477C25.001 9.46071 25.9492 7.17152 27.637 5.4837C29.3248 3.79587 31.614 2.84766 34.001 2.84766H47.501V36.5977H31.751C29.9608 36.5977 28.2439 37.3088 26.978 38.5747C25.7121 39.8406 25.001 41.5574 25.001 43.3477" stroke="#EC9F78" stroke-width="4.5" stroke-linecap="round" stroke-linejoin="round"/>
</svg>
