<svg width="17" height="17" viewBox="0 0 17 17" fill="none" xmlns="http://www.w3.org/2000/svg">
<path d="M6.59924 16.25C5.43455 16.25 4.33611 15.8784 3.42268 15.1753C3.25149 15.0435 3.08857 14.9012 2.93486 14.7494C1.86861 13.6956 1.33205 12.2922 1.42424 10.7975C1.49393 9.66781 1.94893 8.57875 2.70611 7.73094C3.70893 6.60812 5.09143 5.98969 6.59955 5.98969C6.85861 5.98969 7.12018 6.00906 7.37768 6.04719L7.77768 6.10656V9.65625L7.16174 9.45281C6.98281 9.39354 6.79554 9.36337 6.60705 9.36344C6.13018 9.36344 5.68361 9.55031 5.34955 9.88937C5.01705 10.2269 4.83799 10.6731 4.84486 11.1466C4.85393 11.7569 5.17549 12.31 5.70486 12.6269C5.94861 12.7725 6.22611 12.8578 6.50799 12.8734C6.73049 12.8856 6.95018 12.8566 7.16143 12.7869C7.88361 12.5484 8.36893 11.8784 8.36893 11.12L8.37205 7.43875V0.25H11.7646L11.7686 0.714375C11.7705 0.924688 11.7921 1.135 11.8327 1.33875C11.9921 2.14 12.4414 2.85406 13.098 3.34906C13.6808 3.78875 14.3764 4.02094 15.1089 4.02094C15.1261 4.02094 15.1261 4.02094 15.2827 4.03187L15.7186 4.0625V7.40625L15.5624 7.40594H15.0908C14.1874 7.40594 13.3408 7.23375 12.5017 6.87969C12.2517 6.77406 12.0083 6.65344 11.7733 6.51875L11.7839 11.1378C11.7783 12.5041 11.2383 13.7856 10.2636 14.7491C9.47268 15.5306 8.47455 16.03 7.37705 16.1925C7.11955 16.2308 6.85957 16.25 6.59924 16.25ZM6.59924 6.92719C5.36205 6.92719 4.22768 7.43437 3.40518 8.35531C2.78768 9.04688 2.41643 9.93469 2.35955 10.855C2.28455 12.0753 2.72268 13.2216 3.59361 14.0822C3.71955 14.2066 3.85424 14.3244 3.99424 14.4322C4.74236 15.0081 5.6433 15.3125 6.59924 15.3125C6.81361 15.3125 7.02893 15.2966 7.23986 15.2653C8.13893 15.1322 8.95674 14.7231 9.60486 14.0825C10.4011 13.2956 10.8421 12.2497 10.8467 11.1372L10.8321 4.6875L11.5892 5.27156C11.9813 5.57372 12.4107 5.82411 12.8667 6.01656C13.4908 6.28 14.1199 6.42625 14.7808 6.46094V4.94688C13.9639 4.88562 13.1924 4.59531 12.5333 4.09812C11.6927 3.46438 11.1174 2.54938 10.913 1.52219C10.8911 1.41188 10.8733 1.30031 10.8602 1.18781H9.30924V7.43906L9.30611 11.1203C9.30611 12.2838 8.56236 13.3112 7.45518 13.6769C7.13236 13.7834 6.79643 13.8278 6.45643 13.8094C6.0233 13.7856 5.59705 13.6547 5.2233 13.4312C4.41299 12.9466 3.9208 12.0975 3.90705 11.1603C3.89643 10.4341 4.17111 9.74906 4.68111 9.23125C5.19268 8.71187 5.87643 8.42594 6.60643 8.42594C6.68455 8.42594 6.76205 8.42938 6.83955 8.43594V6.93375C6.75955 6.92938 6.67924 6.92719 6.59924 6.92719Z" fill="#6B7385"/>
</svg>
