<svg width="400" height="370" viewBox="0 0 400 370" fill="none" xmlns="http://www.w3.org/2000/svg">
<path d="M339.833 229.218C336.194 220.127 331.849 194.229 361.545 199.001C385.937 202.92 386.351 179.887 383.272 168.145" stroke="black" stroke-width="0.666445" stroke-linecap="round"/>
<path d="M297.807 92.7958C296.394 89.157 294.781 78.8005 306.604 80.8398C316.321 82.5059 316.587 73.3223 315.401 68.6172" stroke="#2039D2" stroke-width="0.635042" stroke-linecap="round"/>
<path d="M236.014 104.885C235.535 103.645 234.975 100.1 239.027 100.793C242.346 101.366 242.439 98.2206 242.039 96.6211" stroke="black" stroke-width="0.635042" stroke-linecap="round"/>
<path d="M243.905 160.401C243.158 158.495 242.318 153.083 248.503 154.136C253.581 155.016 253.728 150.204 253.102 147.738" stroke="black" stroke-width="0.635042" stroke-linecap="round"/>
<path d="M294.968 286.437C293.689 283.132 292.223 273.735 302.952 275.588C311.776 277.107 312.003 268.763 310.936 264.498" stroke="#2039D2" stroke-width="0.635042" stroke-linecap="round"/>
<path d="M281.213 220.221C280.56 218.901 279.627 215.062 284.132 215.449C287.837 215.769 287.637 212.303 287.051 210.584" stroke="black" stroke-width="0.635042" stroke-linecap="round"/>
<path d="M288.25 326.971C287.184 324.785 285.637 318.454 293.075 319.094C299.18 319.627 298.86 313.909 297.887 311.057" stroke="black" stroke-width="0.666445" stroke-linecap="round"/>
<path d="M159.573 330.104C159.107 329.158 158.44 326.412 161.666 326.692C164.318 326.918 164.171 324.452 163.758 323.213" stroke="#2039D2" stroke-width="0.666445" stroke-linecap="round"/>
<path d="M132.129 331.169C131.103 329.063 129.61 322.959 136.781 323.572C142.672 324.078 142.365 318.574 141.432 315.814" stroke="black" stroke-width="0.666445" stroke-linecap="round"/>
<path d="M79.2665 160.106C78.2269 158 76.4675 152.242 82.6254 154.575C87.6904 156.494 86.984 151.563 85.971 148.91" stroke="#2039D2" stroke-width="0.635042" stroke-linecap="round"/>
<path d="M199.254 315.775L170.037 350.844" stroke="black" stroke-width="0.666445" stroke-linecap="round"/>
<path d="M163.679 269.99L134.462 305.045" stroke="black" stroke-width="0.666445" stroke-linecap="round"/>
<path d="M230.243 302.1L192.869 346.991" stroke="black" stroke-width="0.666445" stroke-linecap="round"/>
<path d="M145.725 272.523L108.364 317.415" stroke="black" stroke-width="0.666445" stroke-linecap="round"/>
<path d="M215.289 326.984L194.669 352.456" stroke="black" stroke-width="0.666445" stroke-linecap="round"/>
<path d="M66.6314 115.654L42.9993 143.992L19.3672 172.329" stroke="#7432FF" stroke-width="0.635042" stroke-linecap="round"/>
<path d="M127.038 58.9805L38.4805 164.985" stroke="#7432FF" stroke-width="0.666445" stroke-linecap="round"/>
<path d="M109.777 93.543L36.8018 182.687" stroke="#7432FF" stroke-width="0.635042" stroke-linecap="round"/>
<path d="M388.67 229.23L306.218 328.997" stroke="black" stroke-width="0.666445" stroke-linecap="round"/>
<path d="M377.461 261.326L304.285 349.59" stroke="black" stroke-width="0.635042" stroke-linecap="round"/>
<path d="M349.631 188.923C353.871 188.923 357.308 185.486 357.308 181.246C357.308 177.006 353.871 173.568 349.631 173.568C345.39 173.568 341.953 177.006 341.953 181.246C341.953 185.486 345.39 188.923 349.631 188.923Z" stroke="black" stroke-width="0.799733"/>
<path d="M40.3069 101.501C42.3755 101.501 44.0524 99.8237 44.0524 97.7552C44.0524 95.6867 42.3755 94.0098 40.3069 94.0098C38.2384 94.0098 36.5615 95.6867 36.5615 97.7552C36.5615 99.8237 38.2384 101.501 40.3069 101.501Z" stroke="black" stroke-width="2.3992"/>
<path d="M147.577 164.399C148.534 164.399 149.31 163.623 149.31 162.666C149.31 161.709 148.534 160.934 147.577 160.934C146.621 160.934 145.845 161.709 145.845 162.666C145.845 163.623 146.621 164.399 147.577 164.399Z" stroke="black" stroke-width="1.33289"/>
<path d="M261.114 132.37C262.071 132.37 262.846 131.594 262.846 130.637C262.846 129.68 262.071 128.904 261.114 128.904C260.157 128.904 259.381 129.68 259.381 130.637C259.381 131.594 260.157 132.37 261.114 132.37Z" stroke="black" stroke-width="1.33289"/>
<path d="M222.926 287.051C223.883 287.051 224.659 286.276 224.659 285.319C224.659 284.362 223.883 283.586 222.926 283.586C221.969 283.586 221.193 284.362 221.193 285.319C221.193 286.276 221.969 287.051 222.926 287.051Z" stroke="black" stroke-width="1.33289"/>
<path d="M334.062 271.564C335.078 271.564 335.901 270.74 335.901 269.724C335.901 268.708 335.078 267.885 334.062 267.885C333.046 267.885 332.223 268.708 332.223 269.724C332.223 270.74 333.046 271.564 334.062 271.564Z" stroke="black" stroke-width="1.90514"/>
<path d="M218.381 71.2699C223.387 71.2699 227.445 67.2119 227.445 62.2062C227.445 57.2005 223.387 53.1426 218.381 53.1426C213.375 53.1426 209.317 57.2005 209.317 62.2062C209.317 67.2119 213.375 71.2699 218.381 71.2699Z" stroke="black" stroke-width="0.799733"/>
<path d="M76.308 338.954C83.9712 338.954 90.1834 332.742 90.1834 325.078C90.1834 317.415 83.9712 311.203 76.308 311.203C68.6448 311.203 62.4326 317.415 62.4326 325.078C62.4326 332.742 68.6448 338.954 76.308 338.954Z" stroke="black" stroke-width="0.666445"/>
<path d="M68.7777 203.573C72.0609 203.573 74.7224 200.911 74.7224 197.628C74.7224 194.345 72.0609 191.684 68.7777 191.684C65.4945 191.684 62.833 194.345 62.833 197.628C62.833 200.911 65.4945 203.573 68.7777 203.573Z" stroke="black" stroke-width="1.46618"/>
<path d="M279.228 112.469C281.156 112.469 282.72 110.905 282.72 108.977C282.72 107.048 281.156 105.484 279.228 105.484C277.299 105.484 275.735 107.048 275.735 108.977C275.735 110.905 277.299 112.469 279.228 112.469Z" stroke="black" stroke-width="2.13406"/>
<path d="M316.188 193.029C338.03 193.029 355.735 175.323 355.735 153.482C355.735 131.641 338.03 113.936 316.188 113.936C294.347 113.936 276.642 131.641 276.642 153.482C276.642 175.323 294.347 193.029 316.188 193.029Z" stroke="#FF7A00" stroke-width="3.93729"/>
<path d="M228.671 208.957C265.522 208.957 295.395 179.083 295.395 142.232C295.395 105.381 265.522 75.5078 228.671 75.5078C191.82 75.5078 161.946 105.381 161.946 142.232C161.946 179.083 191.82 208.957 228.671 208.957Z" stroke="#FF7A00" stroke-width="9.73009"/>
<path d="M44.8118 288.024C58.4082 288.024 69.4303 277.002 69.4303 263.406C69.4303 249.809 58.4082 238.787 44.8118 238.787C31.2154 238.787 20.1934 249.809 20.1934 263.406C20.1934 277.002 31.2154 288.024 44.8118 288.024Z" stroke="#FF7A00" stroke-width="1.06631"/>
<path d="M231.79 332.183C239.136 332.183 245.092 326.227 245.092 318.88C245.092 311.534 239.136 305.578 231.79 305.578C224.443 305.578 218.487 311.534 218.487 318.88C218.487 326.227 224.443 332.183 231.79 332.183Z" stroke="#FF7A00" stroke-width="6.39787"/>
<path d="M144.459 90.4764C147.374 90.4764 149.737 88.1133 149.737 85.1982C149.737 82.2831 147.374 79.9199 144.459 79.9199C141.544 79.9199 139.181 82.2831 139.181 85.1982C139.181 88.1133 141.544 90.4764 144.459 90.4764Z" stroke="#FF7A00" stroke-width="4.66511"/>
<path d="M177.82 311.975L215.288 268.363L195.041 262.445L177.82 311.975Z" fill="#6322EE"/>
<path d="M309.79 133.035L227.711 166.624L108.351 220.046L148.057 237.614L167.797 246.971L177.847 312.082L194.815 262.565L271.696 284.731L309.79 133.035Z" fill="#7432FF"/>
<path d="M161.519 243.999L195.268 220.42C190.509 221.5 177.727 224.085 164.625 225.791C151.522 227.484 144.765 232.896 143.019 235.388L161.519 243.999Z" fill="#6322EE"/>
<path d="M304.938 137.887L170.57 244.891L167.851 246.93L177.847 311.735L195.161 262.219L304.938 137.887Z" fill="black"/>
<path d="M231.735 227.804C231.282 227.018 227.43 218.021 225.324 213.542L240.066 208.344L241.985 213.942C245.717 215.555 254.474 218.5 256.727 219.5C259.499 220.74 259.06 221.833 258.367 222.219C261.819 223.099 261.486 224.765 260.899 225.498C261.432 225.751 262.898 226.684 262.392 227.791C261.872 228.924 260.286 228.697 259.286 228.364C259.899 228.83 260.952 230.11 259.739 230.603C258.087 231.283 250.756 229.763 244.944 227.777C247.397 228.737 249.636 229.87 250.822 230.19C252.315 230.59 252.955 232.776 250.822 233.122C239.959 233.735 232.309 228.79 231.735 227.804Z" fill="#FF6B6B"/>
<path d="M258.713 228.218C258.713 228.218 253.728 226.205 249.036 225.059" stroke="black" stroke-width="0.666445" stroke-linecap="round"/>
<path d="M259.579 225.071C259.579 225.071 254.887 223.191 250.476 222.125" stroke="black" stroke-width="0.666445" stroke-linecap="round"/>
<path d="M257.407 221.846C257.407 221.846 252.716 219.967 248.304 218.9" stroke="black" stroke-width="0.666445" stroke-linecap="round"/>
<path d="M225.444 213.863L240.039 208.371L227.777 218.914L225.444 213.863Z" fill="#E34545"/>
<path d="M214.036 138.701C230.057 127.478 211.197 112.257 207.731 108.751C206.505 106.086 205.385 104.046 200.733 102.287C183.766 95.8624 178.154 112.297 177.221 114.509C174.235 121.547 152.163 108.898 144.845 123.653C140.367 132.677 153.416 140.727 160.587 139.781C158.947 140.607 154.109 142.06 159.147 147.059C165.225 151.617 215.875 164.639 217.621 150.964C218.847 141.327 213.422 138.515 214.036 138.701Z" fill="black"/>
<path d="M221.047 101.353C214.569 94.5689 206.958 100.1 203.973 103.712C202.586 108.444 208.918 114.162 211.29 114.855C217.795 116.775 229.151 109.844 221.047 101.353Z" fill="black"/>
<path d="M182.54 131.569C175.142 128.717 176.648 117.108 180.354 112.642C189.338 112.696 194.642 106.698 194.482 107.231C190.271 121.546 199.441 125.545 199.254 126.158C202.6 137.581 204.652 138.994 204.626 139.007C199.907 145.045 193.509 143.605 188.991 141.766L186.645 131.543C186.032 131.743 184.046 132.156 182.54 131.569Z" fill="#FF6B6B"/>
<path d="M186.312 117.309C186.951 118.042 188.844 119.535 191.297 119.694" stroke="black" stroke-width="0.666445" stroke-linecap="round"/>
<path d="M176.621 113.723C177.261 114.456 179.154 115.949 181.606 116.109" stroke="black" stroke-width="0.666445" stroke-linecap="round"/>
<path d="M182.793 122.933C182.793 122.933 180.807 122.253 180.807 121.24C180.807 120.587 183.059 117.135 183.059 117.135" stroke="black" stroke-width="0.666445" stroke-linecap="round"/>
<path d="M193.696 127.918C191.123 130.824 186.951 131.357 186.658 131.557L187.818 136.582L193.696 127.918Z" fill="#E34545"/>
<path d="M196.561 125.371C195.588 126.624 192.589 129.543 188.431 131.249" stroke="black" stroke-width="0.590896" stroke-linecap="round"/>
<path d="M187.564 125.025C188.72 125.025 189.657 124.088 189.657 122.932C189.657 121.777 188.72 120.84 187.564 120.84C186.409 120.84 185.472 121.777 185.472 122.932C185.472 124.088 186.409 125.025 187.564 125.025Z" fill="#E34545"/>
<path d="M179.767 119.414C179.581 120.561 178.474 121.321 177.328 121.134C177.328 121.134 177.381 120.174 177.595 119.028C177.781 117.882 178.101 117.002 178.101 117.002C179.247 117.202 179.954 118.282 179.767 119.414Z" fill="#E34545"/>
<path d="M199.72 142.54C195.081 144.113 188.83 140.461 187.857 140.074C186.884 139.688 183.112 135.849 176.461 140.074C164.678 147.552 151.909 184.953 151.909 185.432C155.348 187.992 165.291 188.871 165.291 188.391C168.277 174.383 175.328 166.679 178.474 164.573C177.127 171.53 174.555 185.432 175.035 185.432C190.536 184.1 202.626 191.177 206.718 194.883C207.117 186.912 208.09 170.971 208.877 170.971C211.783 173.41 216.794 207.132 220.113 214.983L240.066 208.358C239.733 206.492 237.414 200.374 228.364 174.609C219.3 148.845 215.461 139.634 204.652 138.995C204.052 139.781 202.239 141.594 199.72 142.54Z" fill="#2039D2"/>
<path d="M206.478 164.025C207.344 169.544 208.13 177.221 207.85 185.831" stroke="black" stroke-width="0.666445" stroke-linecap="round"/>
<path d="M181.406 159.281C179.767 161.747 177.794 165.346 176.475 169.931" stroke="black" stroke-width="0.666445" stroke-linecap="round"/>
<path d="M210.716 162.561C210.036 163.96 209.223 165.973 208.757 168.399" stroke="black" stroke-width="0.666445" stroke-linecap="round"/>
<path d="M215.648 185.525C215.208 187.471 214.769 190.19 214.729 193.283" stroke="black" stroke-width="0.666445" stroke-linecap="round"/>
<path d="M236.401 209.943C233.189 210.97 228.99 212.276 224.898 213.809" stroke="black" stroke-width="0.666445" stroke-linecap="round"/>
<path d="M189.67 141.074C192.736 142.766 199.52 144.193 204.372 139.607" stroke="black" stroke-width="0.666445" stroke-linecap="round"/>
<path d="M173.382 185.366C175.914 184.567 190.523 183.327 202.492 190.765" stroke="black" stroke-width="0.666445" stroke-linecap="round"/>
<path d="M179.114 145.272C180.387 145.272 181.419 144.24 181.419 142.966C181.419 141.693 180.387 140.66 179.114 140.66C177.84 140.66 176.808 141.693 176.808 142.966C176.808 144.24 177.84 145.272 179.114 145.272Z" fill="white"/>
<path d="M198.28 162.561C199.554 162.561 200.586 161.529 200.586 160.255C200.586 158.982 199.554 157.949 198.28 157.949C197.007 157.949 195.975 158.982 195.975 160.255C195.975 161.529 197.007 162.561 198.28 162.561Z" fill="white"/>
<path d="M181.193 171.704C182.466 171.704 183.499 170.671 183.499 169.398C183.499 168.124 182.466 167.092 181.193 167.092C179.919 167.092 178.887 168.124 178.887 169.398C178.887 170.671 179.919 171.704 181.193 171.704Z" fill="white"/>
<path d="M209.423 149.872C210.697 149.872 211.729 148.839 211.729 147.566C211.729 146.292 210.697 145.26 209.423 145.26C208.15 145.26 207.117 146.292 207.117 147.566C207.117 148.839 208.15 149.872 209.423 149.872Z" fill="white"/>
<path d="M166.331 168.625C167.605 168.625 168.637 167.593 168.637 166.32C168.637 165.046 167.605 164.014 166.331 164.014C165.058 164.014 164.025 165.046 164.025 166.32C164.025 167.593 165.058 168.625 166.331 168.625Z" fill="white"/>
<path d="M187.937 184.125C189.21 184.125 190.243 183.093 190.243 181.82C190.243 180.546 189.21 179.514 187.937 179.514C186.663 179.514 185.631 180.546 185.631 181.82C185.631 183.093 186.663 184.125 187.937 184.125Z" fill="white"/>
<path d="M203.759 179.528C205.033 179.528 206.065 178.495 206.065 177.222C206.065 175.948 205.033 174.916 203.759 174.916C202.486 174.916 201.453 175.948 201.453 177.222C201.453 178.495 202.486 179.528 203.759 179.528Z" fill="white"/>
<path d="M228.67 207.612C229.944 207.612 230.976 206.579 230.976 205.306C230.976 204.032 229.944 203 228.67 203C227.397 203 226.364 204.032 226.364 205.306C226.364 206.579 227.397 207.612 228.67 207.612Z" fill="white"/>
<path d="M224.072 179.528C225.345 179.528 226.377 178.495 226.377 177.222C226.377 175.948 225.345 174.916 224.072 174.916C222.798 174.916 221.766 175.948 221.766 177.222C221.766 178.495 222.798 179.528 224.072 179.528Z" fill="white"/>
<path d="M161.719 185.832C162.993 185.832 164.025 184.8 164.025 183.527C164.025 182.253 162.993 181.221 161.719 181.221C160.445 181.221 159.413 182.253 159.413 183.527C159.413 184.8 160.445 185.832 161.719 185.832Z" fill="white"/>
<path d="M102.486 306.87C106.911 301.365 110.696 290.355 111.643 286.57L88.9968 262.645C88.6769 262.964 87.8505 264.124 86.371 264.804C83.0921 266.31 77.4006 266.577 65.4713 265.484C55.9278 264.604 47.104 268.603 43.7852 270.895C63.5386 282.291 102.486 306.87 102.486 306.87Z" fill="black"/>
<path d="M175.808 227.271C202.039 225.592 206.251 205.345 206.744 194.855C195.401 184.605 180.766 184.752 174.648 185.858C174.648 188.551 176.901 194.735 172.262 198.241C167.624 201.746 139.753 204.825 131.17 207.238C124.305 209.17 118.134 218.967 115.841 223.086C108.31 236.854 99.4467 253.582 88.1172 262.499L116.281 291.889C120.64 281.6 126.904 266.311 131.17 258.127C137.514 245.945 143.019 229.364 175.808 227.271Z" fill="#FFB905"/>
<path d="M200.84 208.956C195.801 203.758 193.029 192.628 193.695 188.963C192.589 191.029 191.23 198.44 192.962 203.811C194.402 208.303 197.841 209.756 200.84 208.956Z" fill="#FF7D05"/>
<path d="M171.156 199.306C173.475 198.626 183.565 191.748 184.818 185.99C180.473 185.137 183.818 185.99 173.662 185.99C152.575 183.085 125.384 173.928 119.96 173.608C111.496 173.101 106.724 170.929 98.7666 184.524C92.3954 195.4 96.5807 234.641 98.7133 251.315L103.125 245.557L121.626 214.567C121.412 208.356 119.946 204.797 119.946 204.797C119.946 204.797 132.462 206.303 141.459 206.303C148.723 205.277 168.503 200.079 171.156 199.306Z" fill="#FFB905"/>
<path d="M98.6205 250.943C107.044 238.027 121.053 215.115 121.666 214.222C121.013 209.33 119.773 204.638 119.773 204.638C119.773 204.638 131.023 209.57 167.411 199.947C134.782 203.466 116.335 194.095 115.708 193.069C114.189 190.55 115.108 209.277 106.871 217.594C99.8734 224.672 98.034 239.054 98.6205 250.943Z" fill="#FF7D05"/>
<path d="M117.454 197.76C118.92 200.319 120.746 203.958 122.226 208.25" stroke="black" stroke-width="0.666445" stroke-linecap="round"/>
<path d="M140.979 240.241C143.232 237.215 146.684 235.589 151.909 236.468" stroke="black" stroke-width="0.666445" stroke-linecap="round"/>
<path d="M138.567 256.927L135.875 248.863C135.262 249.916 133.969 252.156 133.689 252.689C133.422 253.222 129.837 260.646 128.091 264.285L138.567 256.927Z" fill="black"/>
<path d="M94.9014 253.902C102.259 247.744 112.482 227.871 115.255 223.739C120.986 215.208 124.665 207.504 140.246 205.571C149.337 203.932 168.09 200.413 170.436 199.467" stroke="black" stroke-width="0.666445" stroke-linecap="round"/>
<path d="M97.3936 193.149C97.4069 185.911 99.8461 171.582 112.242 171.143" stroke="black" stroke-width="0.666445" stroke-linecap="round"/>
<path d="M115.255 241.266L122.426 242.838" stroke="black" stroke-width="0.666445" stroke-linecap="round"/>
<path d="M193.455 189.336C189.936 203.105 195.974 208.796 195.974 208.796" stroke="black" stroke-width="0.666445" stroke-linecap="round"/>
<path d="M176.674 194.642L183.378 191.656" stroke="black" stroke-width="0.666445" stroke-linecap="round"/>
<path d="M122.412 192.628L129.117 189.643" stroke="black" stroke-width="0.666445" stroke-linecap="round"/>
<path d="M151.35 196.774L152.443 189.523" stroke="black" stroke-width="0.666445" stroke-linecap="round"/>
<path d="M109.523 199.854L103.712 195.389" stroke="black" stroke-width="0.666445" stroke-linecap="round"/>
<path d="M115.601 214.649L109.79 210.184" stroke="black" stroke-width="0.666445" stroke-linecap="round"/>
<path d="M106.325 215.635L101.1 220.78" stroke="black" stroke-width="0.666445" stroke-linecap="round"/>
<path d="M173.489 210.809L168.264 215.954" stroke="black" stroke-width="0.666445" stroke-linecap="round"/>
<path d="M144.458 220.686L139.233 225.831" stroke="black" stroke-width="0.666445" stroke-linecap="round"/>
<path d="M131.476 214.928L124.691 217.713" stroke="black" stroke-width="0.666445" stroke-linecap="round"/>
<path d="M116.081 264.285L109.297 267.084" stroke="black" stroke-width="0.666445" stroke-linecap="round"/>
<path d="M95.168 260.326C97.3939 261.579 111.856 276.161 120.013 285.331" stroke="black" stroke-width="0.666445" stroke-linecap="round"/>
<path d="M86.4914 266.497C87.1578 259.886 87.3311 246.903 82.7326 247.85C78.1475 248.796 83.3324 260.672 86.4914 266.497Z" stroke="black" stroke-width="0.666445"/>
<path d="M87.1705 266.925C84.9313 260.5 79.5197 248.331 75.8543 251.09C72.1755 253.836 81.8656 262.793 87.1705 266.925Z" stroke="black" stroke-width="0.666445"/>
</svg>
